<svg xmlns="http://www.w3.org/2000/svg" width="900" height="440" viewBox="0 0 900 440" font-family="Arial, Helvetica, sans-serif" font-size="12">
<rect width="100%" height="100%" fill="#ffffff"/>
<text x="880" y="14" text-anchor="end" fill="#9ca3af" font-size="11">Log scale: equal percentage moves take equal space.</text>
<line x1="76" x2="880" y1="271.6" y2="271.6" stroke="#e5e7eb"/>
<text x="68" y="275.6" text-anchor="end" fill="#6b7280">₹5,000</text>
<line x1="76" x2="880" y1="184.2" y2="184.2" stroke="#e5e7eb"/>
<text x="68" y="188.2" text-anchor="end" fill="#6b7280">₹6,000</text>
<line x1="76" x2="880" y1="110.2" y2="110.2" stroke="#e5e7eb"/>
<text x="68" y="114.2" text-anchor="end" fill="#6b7280">₹7,000</text>
<line x1="76" x2="880" y1="46.2" y2="46.2" stroke="#e5e7eb"/>
<text x="68" y="50.2" text-anchor="end" fill="#6b7280">₹8,000</text>
<line x1="76.0" x2="76.0" y1="24" y2="316" stroke="#f3f4f6"/>
<text x="76.0" y="334" text-anchor="middle" fill="#6b7280">Day 0</text>
<line x1="236.8" x2="236.8" y1="24" y2="316" stroke="#f3f4f6"/>
<text x="236.8" y="334" text-anchor="middle" fill="#6b7280">Day 3</text>
<line x1="397.6" x2="397.6" y1="24" y2="316" stroke="#f3f4f6"/>
<text x="397.6" y="334" text-anchor="middle" fill="#6b7280">Day 6</text>
<line x1="558.4" x2="558.4" y1="24" y2="316" stroke="#f3f4f6"/>
<text x="558.4" y="334" text-anchor="middle" fill="#6b7280">Day 9</text>
<line x1="719.2" x2="719.2" y1="24" y2="316" stroke="#f3f4f6"/>
<text x="719.2" y="334" text-anchor="middle" fill="#6b7280">Day 12</text>
<line x1="880.0" x2="880.0" y1="24" y2="316" stroke="#f3f4f6"/>
<text x="880.0" y="334" text-anchor="middle" fill="#6b7280">Day 15</text>
<line x1="76" x2="880" y1="271.6" y2="271.6" stroke="#9ca3af" stroke-dasharray="5 4"/>
<text x="876" y="265.6" text-anchor="end" fill="#9ca3af">start ₹5,000</text>
<polyline points="77.7,271.6 79.9,282.1 82.1,198.5 84.4,113.2 86.6,110.4 88.8,93.7 91.1,136.8 93.3,92.2 95.5,47.4 96.7,71.1 97.8,89.1" fill="none" stroke="#2563eb" stroke-width="2"/>
<rect x="76" y="360" width="14" height="4" fill="#2563eb"/>
<text x="96" y="364" fill="#111827">PHA: 10x futures trend <tspan fill="#6b7280">₹7,315</tspan></text>
<polyline points="77.7,271.6 79.9,282.1 82.1,292.6 84.4,191.0 86.6,184.8 88.8,188.4 91.1,228.4 93.3,198.4 95.5,190.7 96.7,175.0 97.8,147.0" fill="none" stroke="#16a34a" stroke-width="2"/>
<rect x="351" y="360" width="14" height="4" fill="#16a34a"/>
<text x="371" y="364" fill="#111827">PUMP: 10x futures trend <tspan fill="#6b7280">₹6,483</tspan></text>
<polyline points="77.7,271.6 79.9,274.8 82.1,248.4 84.4,218.2 86.6,217.1 88.8,210.7 91.1,226.9 93.3,210.2 95.5,192.4 96.7,201.9 97.8,209.0" fill="none" stroke="#dc2626" stroke-width="2"/>
<rect x="626" y="360" width="14" height="4" fill="#dc2626"/>
<text x="646" y="364" fill="#111827">PHA: 3x futures trend <tspan fill="#6b7280">₹5,697</tspan></text>
<polyline points="77.7,271.6 79.9,282.1 82.1,214.6 84.4,200.9 86.6,263.4 88.8,216.8 91.1,256.1 93.3,225.0 95.5,225.1 96.7,225.1 97.8,225.1" fill="none" stroke="#9333ea" stroke-width="2"/>
<rect x="76" y="382" width="14" height="4" fill="#9333ea"/>
<text x="96" y="386" fill="#111827">RENDER: 10x futures trend <tspan fill="#6b7280">₹5,509</tspan></text>
<polyline points="77.7,271.6 79.9,282.1 82.1,262.3 84.4,158.0 86.6,201.3 88.8,194.8 91.1,250.8 93.3,219.2 95.5,267.2 96.7,212.9 97.8,226.2" fill="none" stroke="#ea580c" stroke-width="2"/>
<rect x="351" y="382" width="14" height="4" fill="#ea580c"/>
<text x="371" y="386" fill="#111827">NEAR: 10x futures trend <tspan fill="#6b7280">₹5,497</tspan></text>
<polyline points="77.7,283.2 79.9,287.6 82.1,285.7 84.4,282.6 86.6,286.1 88.8,284.2 91.1,285.9 93.3,285.5 95.5,284.9 96.7,284.6 97.8,287.0" fill="none" stroke="#0891b2" stroke-width="2"/>
<rect x="626" y="382" width="14" height="4" fill="#0891b2"/>
<text x="646" y="386" fill="#111827">Buy &amp; hold BTC <tspan fill="#6b7280">₹4,842</tspan></text>
<polyline points="77.7,271.6 79.9,271.6 82.1,271.6 84.4,271.6 86.6,271.6 88.8,271.6 91.1,271.6 93.3,273.2 95.5,263.4 96.7,268.6 97.8,272.4" fill="none" stroke="#db2777" stroke-width="2"/>
<rect x="76" y="404" width="14" height="4" fill="#db2777"/>
<text x="96" y="408" fill="#111827">AI desk: futures, up to 3x <tspan fill="#6b7280">₹4,992</tspan></text>
<polyline points="77.7,271.6 79.9,271.6 82.1,271.6 84.4,271.6 86.6,271.6 88.8,271.6 91.1,271.6 93.3,278.2 95.5,276.1 96.7,275.7 97.8,277.0" fill="none" stroke="#65a30d" stroke-width="2"/>
<rect x="351" y="404" width="14" height="4" fill="#65a30d"/>
<text x="371" y="408" fill="#111827">AI desk: spot portfolio <tspan fill="#6b7280">₹4,944</tspan></text>
<polyline points="77.7,271.6 79.9,271.6 82.1,271.6 84.4,271.6 86.6,271.6 88.8,271.6 91.1,271.6 93.3,271.6 95.5,271.6 96.7,271.6 97.8,271.6" fill="none" stroke="#4b5563" stroke-width="2"/>
<rect x="626" y="404" width="14" height="4" fill="#4b5563"/>
<text x="646" y="408" fill="#111827">Median of all 1,045 bots <tspan fill="#6b7280">₹5,000</tspan></text>
</svg>