<svg xmlns="http://www.w3.org/2000/svg" width="900" height="440" viewBox="0 0 900 440" font-family="Arial, Helvetica, sans-serif" font-size="12">
<rect width="100%" height="100%" fill="#ffffff"/>
<text x="880" y="14" text-anchor="end" fill="#9ca3af" font-size="11">Log scale: equal percentage moves take equal space.</text>
<line x1="76" x2="880" y1="256.0" y2="256.0" stroke="#e5e7eb"/>
<text x="68" y="260.0" text-anchor="end" fill="#6b7280">₹4,000</text>
<line x1="76" x2="880" y1="142.9" y2="142.9" stroke="#e5e7eb"/>
<text x="68" y="146.9" text-anchor="end" fill="#6b7280">₹5,000</text>
<line x1="76" x2="880" y1="50.6" y2="50.6" stroke="#e5e7eb"/>
<text x="68" y="54.6" text-anchor="end" fill="#6b7280">₹6,000</text>
<line x1="76.0" x2="76.0" y1="24" y2="316" stroke="#f3f4f6"/>
<text x="76.0" y="334" text-anchor="middle" fill="#6b7280">Day 0</text>
<line x1="236.8" x2="236.8" y1="24" y2="316" stroke="#f3f4f6"/>
<text x="236.8" y="334" text-anchor="middle" fill="#6b7280">Day 3</text>
<line x1="397.6" x2="397.6" y1="24" y2="316" stroke="#f3f4f6"/>
<text x="397.6" y="334" text-anchor="middle" fill="#6b7280">Day 6</text>
<line x1="558.4" x2="558.4" y1="24" y2="316" stroke="#f3f4f6"/>
<text x="558.4" y="334" text-anchor="middle" fill="#6b7280">Day 9</text>
<line x1="719.2" x2="719.2" y1="24" y2="316" stroke="#f3f4f6"/>
<text x="719.2" y="334" text-anchor="middle" fill="#6b7280">Day 12</text>
<line x1="880.0" x2="880.0" y1="24" y2="316" stroke="#f3f4f6"/>
<text x="880.0" y="334" text-anchor="middle" fill="#6b7280">Day 15</text>
<line x1="76" x2="880" y1="142.9" y2="142.9" stroke="#9ca3af" stroke-dasharray="5 4"/>
<text x="876" y="136.9" text-anchor="end" fill="#9ca3af">start ₹5,000</text>
<polyline points="77.7,142.9 79.9,154.0 82.1,164.3 84.4,197.9 86.6,82.1 88.8,86.7 91.1,89.6 93.3,89.9 95.5,90.0 97.8,126.4 100.0,124.2 102.2,135.5 104.5,206.3 106.7,94.2 108.9,161.2 111.2,113.5 113.4,93.2 114.5,89.4 115.6,116.6 116.8,59.3 117.3,83.5 117.9,59.3 119.0,53.5 120.1,65.9 121.2,66.5 122.3,65.7" fill="none" stroke="#2563eb" stroke-width="2"/>
<rect x="76" y="360" width="14" height="4" fill="#2563eb"/>
<text x="96" y="364" fill="#111827">FIL: 10x futures trend <tspan fill="#6b7280">₹5,824</tspan></text>
<polyline points="77.7,142.9 79.9,154.0 82.1,131.7 84.4,106.3 86.6,101.0 88.8,93.9 91.1,61.6 93.3,65.7 95.5,88.2 97.8,101.8 100.0,122.0 102.2,111.6 104.5,109.2 106.7,129.6 108.9,131.9 111.2,99.7 113.4,140.6 114.5,101.1 115.6,102.4 116.8,96.1 117.3,48.7 117.9,82.6 119.0,82.9 120.1,72.7 121.2,72.7 122.3,71.4" fill="none" stroke="#16a34a" stroke-width="2"/>
<rect x="351" y="360" width="14" height="4" fill="#16a34a"/>
<text x="371" y="364" fill="#111827">POL: 10x futures trend <tspan fill="#6b7280">₹5,758</tspan></text>
<polyline points="77.7,142.9 79.9,154.0 82.1,202.6 84.4,223.5 86.6,113.0 88.8,114.3 91.1,110.8 93.3,81.1 95.5,81.1 97.8,100.6 100.0,88.9 102.2,67.6 104.5,149.6 106.7,147.7 108.9,135.1 111.2,148.1 113.4,132.7 114.5,140.9 115.6,98.3 116.8,82.9 117.3,92.6 117.9,97.1 119.0,97.1 120.1,111.5 121.2,77.5 122.3,77.5" fill="none" stroke="#dc2626" stroke-width="2"/>
<rect x="626" y="360" width="14" height="4" fill="#dc2626"/>
<text x="646" y="364" fill="#111827">APT: 10x futures trend <tspan fill="#6b7280">₹5,690</tspan></text>
<polyline points="77.7,142.9 79.9,142.9 82.1,142.9 84.4,142.9 86.6,142.9 88.8,142.9 91.1,142.9 93.3,142.9 95.5,142.9 97.8,142.9 100.0,142.9 102.2,142.9 104.5,142.9 106.7,142.9 108.9,142.9 111.2,142.9 113.4,146.3 114.5,149.7 115.6,138.5 116.8,126.5 117.3,121.3 117.9,114.2 119.0,100.8 120.1,96.6 121.2,104.3 122.3,91.5" fill="none" stroke="#9333ea" stroke-width="2"/>
<rect x="76" y="382" width="14" height="4" fill="#9333ea"/>
<text x="96" y="386" fill="#111827">NEAR: coin flip, 3x futures <tspan fill="#6b7280">₹5,534</tspan></text>
<polyline points="77.7,142.9 79.9,142.9 82.1,146.3 84.4,166.4 86.6,170.6 88.8,146.3 91.1,141.4 93.3,97.0 95.5,96.2 97.8,110.3 100.0,110.8 102.2,115.6 104.5,143.1 106.7,128.2 108.9,142.8 111.2,120.6 113.4,106.9 114.5,98.0 115.6,133.3 116.8,131.0 117.3,128.6 117.9,152.2 119.0,154.2 120.1,120.3 121.2,116.8 122.3,106.0" fill="none" stroke="#ea580c" stroke-width="2"/>
<rect x="351" y="382" width="14" height="4" fill="#ea580c"/>
<text x="371" y="386" fill="#111827">QNT: coin flip, 3x futures <tspan fill="#6b7280">₹5,378</tspan></text>
<polyline points="77.7,155.2 79.9,159.8 82.1,157.9 84.4,154.5 86.6,158.3 88.8,156.2 91.1,158.1 93.3,157.7 95.5,157.0 97.8,159.2 100.0,157.9 102.2,157.5 104.5,157.1 106.7,157.5 108.9,156.3 111.2,154.0 113.4,153.4 114.5,153.7 115.6,154.9 116.8,160.0 117.3,158.4 117.9,158.5 119.0,158.5 120.1,158.5 121.2,157.0 122.3,156.9" fill="none" stroke="#0891b2" stroke-width="2"/>
<rect x="626" y="382" width="14" height="4" fill="#0891b2"/>
<text x="646" y="386" fill="#111827">Buy &amp; hold BTC <tspan fill="#6b7280">₹4,864</tspan></text>
<polyline points="77.7,142.9 79.9,142.9 82.1,142.9 84.4,142.9 86.6,142.9 88.8,142.9 91.1,142.9 93.3,149.9 95.5,147.7 97.8,148.7 100.0,148.0 102.2,152.5 104.5,151.4 106.7,154.8 108.9,153.0 111.2,154.8 113.4,155.2 114.5,155.8 115.6,153.5 116.8,159.8 117.3,158.5 117.9,160.1 119.0,160.5 120.1,164.7 121.2,164.1 122.3,166.1" fill="none" stroke="#db2777" stroke-width="2"/>
<rect x="76" y="404" width="14" height="4" fill="#db2777"/>
<text x="96" y="408" fill="#111827">AI desk: spot portfolio <tspan fill="#6b7280">₹4,777</tspan></text>
<polyline points="77.7,142.9 79.9,142.9 82.1,142.9 84.4,142.9 86.6,142.9 88.8,142.9 91.1,142.9 93.3,144.6 95.5,134.3 97.8,143.8 100.0,142.9 102.2,173.3 104.5,183.3 106.7,186.6 108.9,179.2 111.2,190.6 113.4,199.6 114.5,212.6 115.6,214.9 116.8,261.4 117.3,241.5 117.9,270.0 119.0,259.6 120.1,280.3 121.2,263.9 122.3,291.3" fill="none" stroke="#65a30d" stroke-width="2"/>
<rect x="351" y="404" width="14" height="4" fill="#65a30d"/>
<text x="371" y="408" fill="#111827">AI desk: futures, up to 3x <tspan fill="#6b7280">₹3,731</tspan></text>
<polyline points="77.7,142.9 79.9,142.9 82.1,142.9 84.4,142.9 86.6,142.9 88.8,142.9 91.1,142.9 93.3,142.9 95.5,142.9 97.8,142.9 100.0,142.9 102.2,142.9 104.5,142.9 106.7,143.3 108.9,143.6 111.2,144.2 113.4,144.2 114.5,144.5 115.6,144.5 116.8,145.8 117.3,145.4 117.9,146.0 119.0,146.4 120.1,147.0 121.2,146.8 122.3,146.9" fill="none" stroke="#4b5563" stroke-width="2"/>
<rect x="626" y="404" width="14" height="4" fill="#4b5563"/>
<text x="646" y="408" fill="#111827">Median of all 1,045 bots <tspan fill="#6b7280">₹4,961</tspan></text>
</svg>