<svg xmlns="http://www.w3.org/2000/svg" width="900" height="440" viewBox="0 0 900 440" font-family="Arial, Helvetica, sans-serif" font-size="12">
<rect width="100%" height="100%" fill="#ffffff"/>
<text x="880" y="14" text-anchor="end" fill="#9ca3af" font-size="11">Log scale: equal percentage moves take equal space.</text>
<line x1="76" x2="880" y1="268.8" y2="268.8" stroke="#e5e7eb"/>
<text x="68" y="272.8" text-anchor="end" fill="#6b7280">₹4,000</text>
<line x1="76" x2="880" y1="180.0" y2="180.0" stroke="#e5e7eb"/>
<text x="68" y="184.0" text-anchor="end" fill="#6b7280">₹5,000</text>
<line x1="76" x2="880" y1="107.3" y2="107.3" stroke="#e5e7eb"/>
<text x="68" y="111.3" text-anchor="end" fill="#6b7280">₹6,000</text>
<line x1="76" x2="880" y1="45.9" y2="45.9" stroke="#e5e7eb"/>
<text x="68" y="49.9" text-anchor="end" fill="#6b7280">₹7,000</text>
<line x1="76.0" x2="76.0" y1="24" y2="316" stroke="#f3f4f6"/>
<text x="76.0" y="334" text-anchor="middle" fill="#6b7280">Day 0</text>
<line x1="236.8" x2="236.8" y1="24" y2="316" stroke="#f3f4f6"/>
<text x="236.8" y="334" text-anchor="middle" fill="#6b7280">Day 3</text>
<line x1="397.6" x2="397.6" y1="24" y2="316" stroke="#f3f4f6"/>
<text x="397.6" y="334" text-anchor="middle" fill="#6b7280">Day 6</text>
<line x1="558.4" x2="558.4" y1="24" y2="316" stroke="#f3f4f6"/>
<text x="558.4" y="334" text-anchor="middle" fill="#6b7280">Day 9</text>
<line x1="719.2" x2="719.2" y1="24" y2="316" stroke="#f3f4f6"/>
<text x="719.2" y="334" text-anchor="middle" fill="#6b7280">Day 12</text>
<line x1="880.0" x2="880.0" y1="24" y2="316" stroke="#f3f4f6"/>
<text x="880.0" y="334" text-anchor="middle" fill="#6b7280">Day 15</text>
<line x1="76" x2="880" y1="180.0" y2="180.0" stroke="#9ca3af" stroke-dasharray="5 4"/>
<text x="876" y="174.0" text-anchor="end" fill="#9ca3af">start ₹5,000</text>
<polyline points="77.7,180.0 79.9,188.7 82.1,196.7 84.4,223.2 86.6,132.1 88.8,135.7 91.1,138.0 93.3,138.2 95.5,138.3 97.8,166.9 100.0,165.3 102.2,174.1 104.5,229.8 106.7,141.6 108.9,194.3 111.2,156.8 113.4,140.8 114.5,137.9 115.6,159.2 116.8,114.2 117.3,133.2 117.9,114.2 119.0,109.6 120.1,119.4 121.2,119.9 122.3,119.2 123.5,95.9 124.6,104.0 125.7,106.3 126.8,115.9 127.9,109.9 129.0,73.9 130.2,62.5 131.3,88.2 132.4,77.0 133.5,69.7 134.1,55.1 134.6,92.5 135.7,69.0" fill="none" stroke="#2563eb" stroke-width="2"/>
<rect x="76" y="360" width="14" height="4" fill="#2563eb"/>
<text x="96" y="364" fill="#111827">FIL: 10x futures trend <tspan fill="#6b7280">₹6,606</tspan></text>
<polyline points="77.7,180.0 79.9,188.7 82.1,171.1 84.4,151.1 86.6,146.9 88.8,141.4 91.1,116.0 93.3,119.2 95.5,136.9 97.8,147.6 100.0,163.5 102.2,155.3 104.5,153.5 106.7,169.5 108.9,171.3 111.2,145.9 113.4,178.1 114.5,147.1 115.6,148.0 116.8,143.1 117.3,105.9 117.9,132.5 119.0,132.8 120.1,124.7 121.2,124.7 122.3,123.7 123.5,96.3 124.6,94.1 125.7,108.1 126.8,115.2 127.9,106.5 129.0,110.6 130.2,83.2 131.3,69.8 132.4,73.7 133.5,48.6 134.1,43.4 134.6,79.0 135.7,75.1" fill="none" stroke="#16a34a" stroke-width="2"/>
<rect x="351" y="360" width="14" height="4" fill="#16a34a"/>
<text x="371" y="364" fill="#111827">POL: 10x futures trend <tspan fill="#6b7280">₹6,506</tspan></text>
<polyline points="77.7,180.0 79.9,188.7 82.1,226.8 84.4,243.3 86.6,156.4 88.8,157.4 91.1,154.6 93.3,131.3 95.5,131.3 97.8,146.7 100.0,137.5 102.2,120.7 104.5,185.2 106.7,183.7 108.9,173.8 111.2,184.0 113.4,171.9 114.5,178.4 115.6,144.8 116.8,132.8 117.3,140.4 117.9,143.9 119.0,143.9 120.1,155.2 121.2,128.5 122.3,128.5 123.5,118.8 124.6,101.7 125.7,126.0 126.8,127.5 127.9,128.5 129.0,128.5 130.2,100.2 131.3,128.6 132.4,119.5 133.5,93.8 134.1,111.9 134.6,95.2 135.7,100.2" fill="none" stroke="#dc2626" stroke-width="2"/>
<rect x="626" y="360" width="14" height="4" fill="#dc2626"/>
<text x="646" y="364" fill="#111827">APT: 10x futures trend <tspan fill="#6b7280">₹6,108</tspan></text>
<polyline points="77.7,180.0 79.9,180.0 82.1,180.0 84.4,180.0 86.6,180.0 88.8,180.0 91.1,180.0 93.3,180.0 95.5,180.0 97.8,180.0 100.0,180.0 102.2,180.0 104.5,180.0 106.7,180.0 108.9,180.0 111.2,180.0 113.4,182.6 114.5,185.2 115.6,176.5 116.8,167.0 117.3,163.0 117.9,157.3 119.0,146.8 120.1,143.5 121.2,149.6 122.3,139.5 123.5,124.4 124.6,137.0 125.7,133.0 126.8,133.0 127.9,133.1 129.0,130.8 130.2,107.0 131.3,109.4 132.4,106.3 133.5,97.9 134.1,101.3 134.6,105.6 135.7,108.5" fill="none" stroke="#9333ea" stroke-width="2"/>
<rect x="76" y="382" width="14" height="4" fill="#9333ea"/>
<text x="96" y="386" fill="#111827">NEAR: coin flip, 3x futures <tspan fill="#6b7280">₹5,982</tspan></text>
<polyline points="77.7,180.0 79.9,180.0 82.1,182.6 84.4,198.4 86.6,201.7 88.8,182.6 91.1,178.8 93.3,143.8 95.5,143.2 97.8,154.3 100.0,154.6 102.2,158.5 104.5,180.0 106.7,168.3 108.9,179.9 111.2,162.4 113.4,151.6 114.5,144.6 115.6,172.4 116.8,170.6 117.3,168.6 117.9,187.2 119.0,188.8 120.1,162.1 121.2,159.4 122.3,150.9 123.5,138.2 124.6,132.5 125.7,138.5 126.8,123.9 127.9,123.9 129.0,123.9 130.2,123.9 131.3,123.9 132.4,123.9 133.5,123.9 134.1,123.9 134.6,123.9 135.7,123.9" fill="none" stroke="#ea580c" stroke-width="2"/>
<rect x="351" y="382" width="14" height="4" fill="#ea580c"/>
<text x="371" y="386" fill="#111827">QNT: coin flip, 3x futures <tspan fill="#6b7280">₹5,756</tspan></text>
<polyline points="77.7,189.5 79.9,193.2 82.1,191.7 84.4,189.1 86.6,192.0 88.8,190.4 91.1,191.8 93.3,191.5 95.5,191.0 97.8,192.7 100.0,191.7 102.2,191.4 104.5,191.1 106.7,191.4 108.9,190.4 111.2,188.7 113.4,188.2 114.5,188.4 115.6,189.4 116.8,193.3 117.3,192.1 117.9,192.2 119.0,192.2 120.1,192.2 121.2,191.0 122.3,190.9 123.5,191.4 124.6,190.1 125.7,190.5 126.8,190.4 127.9,192.5 129.0,191.0 130.2,192.3 131.3,190.2 132.4,189.2 133.5,189.5 134.1,189.1 134.6,189.1 135.7,189.3" fill="none" stroke="#0891b2" stroke-width="2"/>
<rect x="626" y="382" width="14" height="4" fill="#0891b2"/>
<text x="646" y="386" fill="#111827">Buy &amp; hold BTC <tspan fill="#6b7280">₹4,884</tspan></text>
<polyline points="77.7,180.0 79.9,180.0 82.1,180.0 84.4,180.0 86.6,180.0 88.8,180.0 91.1,180.0 93.3,185.4 95.5,183.7 97.8,184.4 100.0,184.0 102.2,187.4 104.5,186.6 106.7,189.3 108.9,187.8 111.2,189.3 113.4,189.5 114.5,190.0 115.6,188.2 116.8,193.2 117.3,192.2 117.9,193.4 119.0,193.7 120.1,197.0 121.2,196.5 122.3,198.1 123.5,202.9 124.6,201.4 125.7,201.3 126.8,205.4 127.9,205.8 129.0,206.3 130.2,207.0 131.3,207.0 132.4,208.1 133.5,210.6 134.1,212.5 134.6,210.1 135.7,211.6" fill="none" stroke="#db2777" stroke-width="2"/>
<rect x="76" y="404" width="14" height="4" fill="#db2777"/>
<text x="96" y="408" fill="#111827">AI desk: spot portfolio <tspan fill="#6b7280">₹4,618</tspan></text>
<polyline points="77.7,180.0 79.9,180.0 82.1,180.0 84.4,180.0 86.6,180.0 88.8,180.0 91.1,180.0 93.3,181.2 95.5,173.2 97.8,180.6 100.0,180.0 102.2,203.8 104.5,211.7 106.7,214.3 108.9,208.4 111.2,217.4 113.4,224.5 114.5,234.7 115.6,236.5 116.8,273.0 117.3,257.4 117.9,279.8 119.0,271.6 120.1,287.9 121.2,275.1 122.3,296.6 123.5,292.1 124.6,279.0 125.7,269.5 126.8,279.9 127.9,272.2 129.0,272.7 130.2,287.3 131.3,282.1 132.4,278.4 133.5,283.4 134.1,279.0 134.6,285.4 135.7,279.0" fill="none" stroke="#65a30d" stroke-width="2"/>
<rect x="351" y="404" width="14" height="4" fill="#65a30d"/>
<text x="371" y="408" fill="#111827">AI desk: futures, up to 3x <tspan fill="#6b7280">₹3,899</tspan></text>
<polyline points="77.7,180.0 79.9,180.0 82.1,180.0 84.4,180.0 86.6,180.0 88.8,180.0 91.1,180.0 93.3,180.0 95.5,180.0 97.8,180.0 100.0,180.0 102.2,180.0 104.5,180.0 106.7,180.2 108.9,180.4 111.2,180.9 113.4,180.9 114.5,181.2 115.6,181.2 116.8,182.2 117.3,181.9 117.9,182.4 119.0,182.7 120.1,183.2 121.2,183.0 122.3,183.1 123.5,184.4 124.6,183.6 125.7,183.8 126.8,183.8 127.9,184.3 129.0,184.7 130.2,185.5 131.3,185.2 132.4,184.9 133.5,185.2 134.1,185.7 134.6,184.9 135.7,185.6" fill="none" stroke="#4b5563" stroke-width="2"/>
<rect x="626" y="404" width="14" height="4" fill="#4b5563"/>
<text x="646" y="408" fill="#111827">Median of all 1,045 bots <tspan fill="#6b7280">₹4,930</tspan></text>
</svg>